<svg id="compass" enable-background="new 0 0 300 300" height="512" viewBox="0 0 300 300" width="512" xmlns="http://www.w3.org/2000/svg" xmlns:xlink="http://www.w3.org/1999/xlink"><linearGradient id="SVGID_1_" gradientUnits="userSpaceOnUse" x1="46.897" x2="249.438" y1="250.603" y2="48.062"><stop offset="0" stop-color="#107eff"/><stop offset="1" stop-color="#8f16ff"/></linearGradient><g><path d="m218.464 100.261 15.859-31.717c.77-1.541.467-3.4-.75-4.617-1.215-1.217-3.072-1.52-4.617-.75l-31.968 15.984c-16.338-11.686-35.568-17.896-55.753-17.896-20.544 0-40.071 6.409-56.579 18.483l-33.141-16.571c-1.541-.77-3.402-.467-4.617.75-1.217 1.217-1.52 3.076-.75 4.617l16.672 33.343c-11.499 16.255-17.584 35.395-17.584 55.378 0 19.996 6.1 39.104 17.596 55.353l-16.684 33.367c-.77 1.541-.467 3.4.75 4.617.768.768 1.791 1.172 2.83 1.172.605 0 1.219-.139 1.787-.422l33.143-16.572c16.509 12.074 36.035 18.484 56.578 18.484 20.186 0 39.417-6.209 55.753-17.896l31.967 15.984c.568.283 1.18.422 1.787.422 1.039 0 2.062-.404 2.83-1.172 1.217-1.217 1.52-3.076.75-4.617l-15.871-31.741c12.267-16.593 18.783-36.253 18.783-56.979 0-20.712-6.499-40.406-18.771-57.004zm-34.071 50.252-37.406-37.406 74.813-37.407zm-44.158 46.349-39.598-39.598 39.598-39.598 39.598 39.598zm1-127.597c17.062 0 33.375 4.849 47.556 13.995l-12.863 6.432c-.082-.05-.133-.13-.22-.175-2.492-1.271-5.092-2.42-7.725-3.41-2.062-.779-4.373.268-5.152 2.336-.777 2.068.268 4.375 2.336 5.152.535.201 1.038.477 1.569.693l-26.501 13.251-25.643-12.822c.199-.085.384-.199.584-.282 2.039-.848 3.006-3.188 2.158-5.229-.846-2.037-3.188-3.01-5.229-2.158-2.243.932-4.441 1.998-6.577 3.137l-12.708-6.354c14.375-9.513 30.988-14.566 48.415-14.566zm-88 88c0-16.849 4.765-33.021 13.722-47.103l6.425 12.851c-1.218 2.412-2.323 4.902-3.27 7.416-.779 2.066.264 4.373 2.332 5.152.465.176.941.26 1.41.26 1.617 0 3.139-.988 3.742-2.592.123-.325.296-.635.425-.959l12.488 24.974-12.475 24.95c-.198-.5-.454-.975-.64-1.479-.762-2.072-3.057-3.137-5.137-2.371-2.072.764-3.135 3.062-2.371 5.137.973 2.639 2.1 5.244 3.354 7.746.044.087.112.15.161.233l-6.449 12.898c-8.961-14.081-13.717-30.246-13.717-47.113zm42.842 6.752 37.406 37.406-74.812 37.406zm45.158 81.248c-17.426 0-34.039-5.053-48.413-14.566l12.69-6.345c2.393 1.276 4.87 2.439 7.379 3.447.488.197.992.291 1.488.291 1.586 0 3.086-.949 3.713-2.512.824-2.049-.17-4.379-2.221-5.201-.423-.17-.823-.404-1.244-.583l25.607-12.804 26.541 13.271c-.246.1-.48.236-.727.333-2.057.809-3.07 3.129-2.264 5.186.619 1.576 2.129 2.541 3.727 2.541.484 0 .979-.09 1.459-.277 2.374-.933 4.72-2.011 7-3.184l12.82 6.41c-14.178 9.144-30.491 13.993-47.555 13.993zm66.823-51.808c1.21-2.23 2.331-4.525 3.306-6.852.854-2.037-.105-4.381-2.145-5.234-2.035-.85-4.381.105-5.234 2.145-.13.31-.308.602-.443.911l-13.581-27.161 13.58-27.16c.136.311.316.608.447.92.641 1.535 2.127 2.459 3.691 2.459.514 0 1.037-.102 1.541-.312 2.039-.852 3-3.195 2.146-5.232-.973-2.328-2.095-4.627-3.31-6.865l6.32-12.64c9.697 14.472 14.857 31.238 14.857 48.832 0 17.612-5.151 34.372-14.852 48.842zm-138.366-23.979c-2.006 0-3.736-1.506-3.969-3.547-.324-2.85-.488-5.766-.488-8.666 0-3.117.191-6.26.568-9.342.27-2.193 2.295-3.736 4.457-3.484 2.193.27 3.752 2.264 3.484 4.457-.338 2.76-.51 5.576-.51 8.369 0 2.6.146 5.211.438 7.76.25 2.195-1.328 4.178-3.521 4.428-.154.017-.306.025-.459.025zm57.397-82.934c-.311-2.188 1.211-4.213 3.398-4.523 6.238-.885 12.717-.994 18.998-.312 2.195.236 3.785 2.209 3.547 4.406s-2.217 3.768-4.406 3.547c-5.623-.609-11.428-.514-17.014.281-.191.027-.381.039-.568.039-1.959 0-3.67-1.442-3.955-3.438zm90.146 70.721c0 3.355-.221 6.73-.656 10.027-.266 2.012-1.982 3.477-3.959 3.477-.176 0-.352-.012-.529-.035-2.189-.289-3.73-2.297-3.441-4.488.389-2.951.586-5.973.586-8.98 0-2.982-.195-5.986-.58-8.924-.285-2.191 1.258-4.199 3.447-4.486 2.16-.287 4.199 1.258 4.486 3.447.429 3.28.646 6.634.646 9.962zm-63.32 71c.266 2.193-1.299 4.186-3.492 4.449-3.033.365-6.123.551-9.188.551-3.305 0-6.631-.215-9.883-.637-2.191-.285-3.736-2.291-3.451-4.482.283-2.191 2.275-3.738 4.482-3.451 5.613.73 11.436.754 17.082.078 2.194-.247 4.186 1.298 4.45 3.492zm-13.68-87c-8.822 0-16 7.178-16 16s7.178 16 16 16 16-7.178 16-16-7.178-16-16-16zm0 24c-4.412 0-8-3.588-8-8s3.588-8 8-8 8 3.588 8 8-3.588 8-8 8zm114.53-70c0 2.501-2.028 4.529-4.53 4.529s-4.53-2.028-4.53-4.529c0-2.502 2.028-4.53 4.53-4.53s4.53 2.028 4.53 4.53zm-9.059-40c0-2.502 2.028-4.53 4.53-4.53s4.53 2.028 4.53 4.53c0 2.501-2.028 4.529-4.53 4.529s-4.53-2.028-4.53-4.529zm-48-4c0-2.502 2.028-4.53 4.53-4.53s4.53 2.028 4.53 4.53c0 2.501-2.028 4.529-4.53 4.529s-4.53-2.028-4.53-4.529z" fill="url(#SVGID_1_)"/></g></svg>